{
	"asset":{
		"generator":"Khronos glTF Blender I/O v4.3.47",
		"version":"2.0"
	},
	"scene":0,
	"scenes":[
		{
			"name":"Scene",
			"nodes":[
				0
			]
		}
	],
	"nodes":[
		{
			"mesh":0,
			"name":"body"
		}
	],
	"materials":[
		{
			"doubleSided":true,
			"name":"red",
			"pbrMetallicRoughness":{
				"baseColorFactor":[
					0.18891000747680664,
					0,
					0.0008260488393716514,
					1
				],
				"metallicFactor":0.3454545736312866,
				"roughnessFactor":0.5
			}
		},
		{
			"doubleSided":true,
			"name":"body",
			"pbrMetallicRoughness":{
				"baseColorFactor":[
					0,
					0,
					0,
					1
				],
				"metallicFactor":0,
				"roughnessFactor":0.26363635063171387
			}
		},
		{
			"doubleSided":true,
			"name":"screen image",
			"pbrMetallicRoughness":{
				"metallicFactor":0,
				"roughnessFactor":0.5
			}
		}
	],
	"meshes":[
		{
			"name":"Cube",
			"primitives":[
				{
					"attributes":{
						"POSITION":0,
						"NORMAL":1,
						"TEXCOORD_0":2
					},
					"indices":3,
					"material":0
				},
				{
					"attributes":{
						"POSITION":4,
						"NORMAL":5,
						"TEXCOORD_0":6
					},
					"indices":7,
					"material":1
				},
				{
					"attributes":{
						"POSITION":8,
						"NORMAL":9,
						"TEXCOORD_0":10
					},
					"indices":11,
					"material":2
				}
			]
		}
	],
	"accessors":[
		{
			"bufferView":0,
			"componentType":5126,
			"count":2492,
			"max":[
				1,
				5.008801460266113,
				1.152930498123169
			],
			"min":[
				-1,
				0,
				-1
			],
			"type":"VEC3"
		},
		{
			"bufferView":1,
			"componentType":5126,
			"count":2492,
			"type":"VEC3"
		},
		{
			"bufferView":2,
			"componentType":5126,
			"count":2492,
			"type":"VEC2"
		},
		{
			"bufferView":3,
			"componentType":5123,
			"count":4044,
			"type":"SCALAR"
		},
		{
			"bufferView":4,
			"componentType":5126,
			"count":7203,
			"max":[
				1,
				5.008801460266113,
				1.152930498123169
			],
			"min":[
				-1,
				0,
				-1
			],
			"type":"VEC3"
		},
		{
			"bufferView":5,
			"componentType":5126,
			"count":7203,
			"type":"VEC3"
		},
		{
			"bufferView":6,
			"componentType":5126,
			"count":7203,
			"type":"VEC2"
		},
		{
			"bufferView":7,
			"componentType":5123,
			"count":11586,
			"type":"SCALAR"
		},
		{
			"bufferView":8,
			"componentType":5126,
			"count":4,
			"max":[
				0.8116515874862671,
				4.301074981689453,
				0.3685115575790405
			],
			"min":[
				-0.7896404266357422,
				3.255312442779541,
				-0.0420130118727684
			],
			"type":"VEC3"
		},
		{
			"bufferView":9,
			"componentType":5126,
			"count":4,
			"type":"VEC3"
		},
		{
			"bufferView":10,
			"componentType":5126,
			"count":4,
			"type":"VEC2"
		},
		{
			"bufferView":11,
			"componentType":5123,
			"count":6,
			"type":"SCALAR"
		}
	],
	"bufferViews":[
		{
			"buffer":0,
			"byteLength":29904,
			"byteOffset":0,
			"target":34962
		},
		{
			"buffer":0,
			"byteLength":29904,
			"byteOffset":29904,
			"target":34962
		},
		{
			"buffer":0,
			"byteLength":19936,
			"byteOffset":59808,
			"target":34962
		},
		{
			"buffer":0,
			"byteLength":8088,
			"byteOffset":79744,
			"target":34963
		},
		{
			"buffer":0,
			"byteLength":86436,
			"byteOffset":87832,
			"target":34962
		},
		{
			"buffer":0,
			"byteLength":86436,
			"byteOffset":174268,
			"target":34962
		},
		{
			"buffer":0,
			"byteLength":57624,
			"byteOffset":260704,
			"target":34962
		},
		{
			"buffer":0,
			"byteLength":23172,
			"byteOffset":318328,
			"target":34963
		},
		{
			"buffer":0,
			"byteLength":48,
			"byteOffset":341500,
			"target":34962
		},
		{
			"buffer":0,
			"byteLength":48,
			"byteOffset":341548,
			"target":34962
		},
		{
			"buffer":0,
			"byteLength":32,
			"byteOffset":341596,
			"target":34962
		},
		{
			"buffer":0,
			"byteLength":12,
			"byteOffset":341628,
			"target":34963
		}
	],
	"buffers":[
		{
			"byteLength":341640,
			"uri":"arcade-console.bin"
		}
	]
}
