<svg width="64" height="64" viewBox="0 0 64 64" fill="none" xmlns="http://www.w3.org/2000/svg">
<path d="M52.7603 51.5H11.7603C11.3624 51.5 10.9809 51.658 10.6996 51.9393C10.4183 52.2206 10.2603 52.6022 10.2603 53C10.2603 53.3978 10.4183 53.7794 10.6996 54.0607C10.9809 54.342 11.3624 54.5 11.7603 54.5H52.7603C53.1581 54.5 53.5396 54.342 53.8209 54.0607C54.1022 53.7794 54.2603 53.3978 54.2603 53C54.2603 52.6022 54.1022 52.2206 53.8209 51.9393C53.5396 51.658 53.1581 51.5 52.7603 51.5V51.5Z" fill="#ffffff" id="id_101"></path>
<path d="M52.7602 41H11.2402C10.8424 41 10.4609 41.158 10.1796 41.4393C9.89827 41.7206 9.74023 42.1022 9.74023 42.5C9.74023 42.8978 9.89827 43.2794 10.1796 43.5607C10.4609 43.842 10.8424 44 11.2402 44H52.7602C53.1581 44 53.5396 43.842 53.8209 43.5607C54.1022 43.2794 54.2602 42.8978 54.2602 42.5C54.2602 42.1022 54.1022 41.7206 53.8209 41.4393C53.5396 41.158 53.1581 41 52.7602 41Z" fill="#ffffff" id="id_102"></path>
<path d="M52.7603 30.4199H11.7603C11.3624 30.4199 10.9809 30.578 10.6996 30.8593C10.4183 31.1406 10.2603 31.5221 10.2603 31.9199C10.2603 32.3177 10.4183 32.6993 10.6996 32.9806C10.9809 33.2619 11.3624 33.4199 11.7603 33.4199H52.7603C53.1581 33.4199 53.5396 33.2619 53.8209 32.9806C54.1022 32.6993 54.2603 32.3177 54.2603 31.9199C54.2603 31.5221 54.1022 31.1406 53.8209 30.8593C53.5396 30.578 53.1581 30.4199 52.7603 30.4199Z" fill="#ffffff" id="id_103"></path>
<path d="M11.2402 12.5H52.2402C52.6381 12.5 53.0196 12.342 53.3009 12.0607C53.5822 11.7794 53.7402 11.3978 53.7402 11C53.7402 10.6022 53.5822 10.2206 53.3009 9.93934C53.0196 9.65804 52.6381 9.5 52.2402 9.5H11.2402C10.8424 9.5 10.4609 9.65804 10.1796 9.93934C9.89827 10.2206 9.74023 10.6022 9.74023 11C9.74023 11.3978 9.89827 11.7794 10.1796 12.0607C10.4609 12.342 10.8424 12.5 11.2402 12.5V12.5Z" fill="#ffffff" id="id_104"></path>
<path d="M11.2402 22.8799H52.7602C53.1581 22.8799 53.5396 22.7218 53.8209 22.4405C54.1022 22.1592 54.2602 21.7777 54.2602 21.3799C54.2602 20.9821 54.1022 20.6005 53.8209 20.3192C53.5396 20.0379 53.1581 19.8799 52.7602 19.8799H11.2402C10.8424 19.8799 10.4609 20.0379 10.1796 20.3192C9.89827 20.6005 9.74023 20.9821 9.74023 21.3799C9.74023 21.7777 9.89827 22.1592 10.1796 22.4405C10.4609 22.7218 10.8424 22.8799 11.2402 22.8799V22.8799Z" fill="#ffffff" id="id_105"></path>
</svg>